<svg width="17" height="20" viewBox="0 0 17 20" fill="none" xmlns="http://www.w3.org/2000/svg">
<path d="M8.125 0C10.2799 0 12.3465 0.867206 13.8702 2.41084C15.394 3.95448 16.25 6.0481 16.25 8.23113C16.25 11.7093 13.8375 15.4999 9.075 19.6433C8.81019 19.8737 8.47255 20.0003 8.12344 20C7.77433 19.9997 7.43692 19.8725 7.1725 19.6416L6.8575 19.3647C2.30583 15.3293 0 11.6316 0 8.23113C0 6.0481 0.856025 3.95448 2.37976 2.41084C3.90349 0.867206 5.97012 0 8.125 0ZM8.125 1.26633C6.30164 1.26633 4.55295 2.00012 3.26364 3.30627C1.97433 4.61243 1.25 6.38395 1.25 8.23113C1.25 11.1876 3.37333 14.594 7.67833 18.4099L7.98917 18.6826C8.02696 18.7155 8.07515 18.7336 8.125 18.7336C8.17485 18.7336 8.22304 18.7155 8.26083 18.6826C12.7742 14.7553 15 11.2577 15 8.23113C15 7.3165 14.8222 6.41083 14.4767 5.56582C14.1312 4.72081 13.6248 3.95301 12.9864 3.30627C12.348 2.65953 11.5901 2.14651 10.7559 1.79649C9.92183 1.44648 9.02784 1.26633 8.125 1.26633ZM8.125 5.06531C8.9538 5.06531 9.74866 5.39885 10.3347 5.99256C10.9208 6.58626 11.25 7.3915 11.25 8.23113C11.25 9.07076 10.9208 9.876 10.3347 10.4697C9.74866 11.0634 8.9538 11.397 8.125 11.397C7.2962 11.397 6.50134 11.0634 5.91529 10.4697C5.32924 9.876 5 9.07076 5 8.23113C5 7.3915 5.32924 6.58626 5.91529 5.99256C6.50134 5.39885 7.2962 5.06531 8.125 5.06531ZM8.125 6.33164C7.62772 6.33164 7.15081 6.53176 6.79917 6.88799C6.44754 7.24421 6.25 7.72735 6.25 8.23113C6.25 8.73491 6.44754 9.21805 6.79917 9.57427C7.15081 9.9305 7.62772 10.1306 8.125 10.1306C8.62228 10.1306 9.09919 9.9305 9.45082 9.57427C9.80246 9.21805 10 8.73491 10 8.23113C10 7.72735 9.80246 7.24421 9.45082 6.88799C9.09919 6.53176 8.62228 6.33164 8.125 6.33164Z" fill="#727272"/>
</svg>
